<mxfile host="app.diagrams.net" modified="2020-12-05T03:53:29.122Z" agent="5.0 (Windows)" etag="zwM8u4pbwEEUeGV8bzLr" version="13.10.9" type="github">
  <diagram name="Page-1" id="74e2e168-ea6b-b213-b513-2b3c1d86103e">
    <mxGraphModel dx="1185" dy="659" grid="1" gridSize="10" guides="1" tooltips="1" connect="1" arrows="1" fold="1" page="1" pageScale="1" pageWidth="850" pageHeight="1100" background="#ffffff" math="0" shadow="0">
      <root>
        <mxCell id="0" />
        <mxCell id="1" parent="0" />
        <mxCell id="77e6c97f196da883-1" value="Pool" style="swimlane;html=1;childLayout=stackLayout;startSize=20;rounded=0;shadow=0;labelBackgroundColor=none;strokeWidth=1;fontFamily=Verdana;fontSize=8;align=center;" parent="1" vertex="1">
          <mxGeometry x="60" y="40" width="1600" height="1040" as="geometry" />
        </mxCell>
        <mxCell id="77e6c97f196da883-2" value="Ventas" style="swimlane;html=1;startSize=20;" parent="77e6c97f196da883-1" vertex="1">
          <mxGeometry y="20" width="160" height="1020" as="geometry" />
        </mxCell>
        <mxCell id="YEVmGm1s0WztMW8NSKh9-12" style="edgeStyle=orthogonalEdgeStyle;rounded=0;orthogonalLoop=1;jettySize=auto;html=1;entryX=0.425;entryY=0.017;entryDx=0;entryDy=0;entryPerimeter=0;" edge="1" parent="77e6c97f196da883-2" source="YEVmGm1s0WztMW8NSKh9-1" target="YEVmGm1s0WztMW8NSKh9-3">
          <mxGeometry relative="1" as="geometry" />
        </mxCell>
        <mxCell id="YEVmGm1s0WztMW8NSKh9-1" value="INICIO" style="ellipse;whiteSpace=wrap;html=1;" vertex="1" parent="77e6c97f196da883-2">
          <mxGeometry x="10" y="40" width="120" height="50" as="geometry" />
        </mxCell>
        <mxCell id="YEVmGm1s0WztMW8NSKh9-2" value="FIN" style="ellipse;whiteSpace=wrap;html=1;" vertex="1" parent="77e6c97f196da883-2">
          <mxGeometry x="20" y="730" width="120" height="50" as="geometry" />
        </mxCell>
        <mxCell id="YEVmGm1s0WztMW8NSKh9-13" style="edgeStyle=orthogonalEdgeStyle;rounded=0;orthogonalLoop=1;jettySize=auto;html=1;entryX=0.5;entryY=0;entryDx=0;entryDy=0;" edge="1" parent="77e6c97f196da883-2" source="YEVmGm1s0WztMW8NSKh9-3" target="YEVmGm1s0WztMW8NSKh9-4">
          <mxGeometry relative="1" as="geometry" />
        </mxCell>
        <mxCell id="YEVmGm1s0WztMW8NSKh9-3" value="RECEPCION DEL MENSAJE" style="rounded=0;whiteSpace=wrap;html=1;" vertex="1" parent="77e6c97f196da883-2">
          <mxGeometry x="20" y="120" width="120" height="60" as="geometry" />
        </mxCell>
        <mxCell id="YEVmGm1s0WztMW8NSKh9-14" style="edgeStyle=orthogonalEdgeStyle;rounded=0;orthogonalLoop=1;jettySize=auto;html=1;entryX=0.5;entryY=0;entryDx=0;entryDy=0;" edge="1" parent="77e6c97f196da883-2" source="YEVmGm1s0WztMW8NSKh9-4" target="YEVmGm1s0WztMW8NSKh9-6">
          <mxGeometry relative="1" as="geometry" />
        </mxCell>
        <mxCell id="YEVmGm1s0WztMW8NSKh9-4" value="DESCRIPCION DEL PRODUCTO DE INTERES" style="rounded=0;whiteSpace=wrap;html=1;" vertex="1" parent="77e6c97f196da883-2">
          <mxGeometry x="20" y="200" width="120" height="60" as="geometry" />
        </mxCell>
        <mxCell id="YEVmGm1s0WztMW8NSKh9-17" style="edgeStyle=orthogonalEdgeStyle;rounded=0;orthogonalLoop=1;jettySize=auto;html=1;entryX=0.5;entryY=0;entryDx=0;entryDy=0;" edge="1" parent="77e6c97f196da883-2" source="YEVmGm1s0WztMW8NSKh9-5" target="YEVmGm1s0WztMW8NSKh9-8">
          <mxGeometry relative="1" as="geometry" />
        </mxCell>
        <mxCell id="YEVmGm1s0WztMW8NSKh9-5" value="CONFIRMACION DE PEDIDO" style="rounded=0;whiteSpace=wrap;html=1;" vertex="1" parent="77e6c97f196da883-2">
          <mxGeometry x="20" y="400" width="120" height="60" as="geometry" />
        </mxCell>
        <mxCell id="YEVmGm1s0WztMW8NSKh9-15" style="edgeStyle=orthogonalEdgeStyle;rounded=0;orthogonalLoop=1;jettySize=auto;html=1;" edge="1" parent="77e6c97f196da883-2" source="YEVmGm1s0WztMW8NSKh9-6" target="YEVmGm1s0WztMW8NSKh9-5">
          <mxGeometry relative="1" as="geometry" />
        </mxCell>
        <mxCell id="YEVmGm1s0WztMW8NSKh9-6" value="CLIENTE DESEA EL PRODUCTO?" style="rhombus;whiteSpace=wrap;html=1;" vertex="1" parent="77e6c97f196da883-2">
          <mxGeometry x="40" y="280" width="80" height="80" as="geometry" />
        </mxCell>
        <mxCell id="YEVmGm1s0WztMW8NSKh9-18" style="edgeStyle=orthogonalEdgeStyle;rounded=0;orthogonalLoop=1;jettySize=auto;html=1;" edge="1" parent="77e6c97f196da883-2" source="YEVmGm1s0WztMW8NSKh9-8">
          <mxGeometry relative="1" as="geometry">
            <mxPoint x="80.02857142857135" y="580" as="targetPoint" />
          </mxGeometry>
        </mxCell>
        <mxCell id="YEVmGm1s0WztMW8NSKh9-8" value="SOLIICTAR DATOS DE CLIENTE" style="shape=parallelogram;perimeter=parallelogramPerimeter;whiteSpace=wrap;html=1;fixedSize=1;" vertex="1" parent="77e6c97f196da883-2">
          <mxGeometry x="20" y="490" width="120" height="60" as="geometry" />
        </mxCell>
        <mxCell id="YEVmGm1s0WztMW8NSKh9-16" value="SI" style="text;html=1;align=center;verticalAlign=middle;resizable=0;points=[];autosize=1;" vertex="1" parent="77e6c97f196da883-2">
          <mxGeometry x="80" y="360" width="30" height="20" as="geometry" />
        </mxCell>
        <mxCell id="YEVmGm1s0WztMW8NSKh9-22" style="edgeStyle=orthogonalEdgeStyle;rounded=0;orthogonalLoop=1;jettySize=auto;html=1;" edge="1" parent="77e6c97f196da883-2" source="YEVmGm1s0WztMW8NSKh9-21" target="YEVmGm1s0WztMW8NSKh9-2">
          <mxGeometry relative="1" as="geometry" />
        </mxCell>
        <mxCell id="YEVmGm1s0WztMW8NSKh9-23" value="NO" style="edgeLabel;html=1;align=center;verticalAlign=middle;resizable=0;points=[];" vertex="1" connectable="0" parent="YEVmGm1s0WztMW8NSKh9-22">
          <mxGeometry x="-0.1673" y="-2" relative="1" as="geometry">
            <mxPoint as="offset" />
          </mxGeometry>
        </mxCell>
        <mxCell id="YEVmGm1s0WztMW8NSKh9-21" value="CLIENTE DESEA FACTURA?" style="rhombus;whiteSpace=wrap;html=1;" vertex="1" parent="77e6c97f196da883-2">
          <mxGeometry x="40" y="580" width="80" height="80" as="geometry" />
        </mxCell>
        <mxCell id="77e6c97f196da883-3" value="INVENTARIO" style="swimlane;html=1;startSize=20;" parent="77e6c97f196da883-1" vertex="1">
          <mxGeometry x="160" y="20" width="160" height="1020" as="geometry" />
        </mxCell>
        <mxCell id="YEVmGm1s0WztMW8NSKh9-34" style="edgeStyle=orthogonalEdgeStyle;rounded=0;orthogonalLoop=1;jettySize=auto;html=1;entryX=0.5;entryY=0;entryDx=0;entryDy=0;" edge="1" parent="77e6c97f196da883-3" source="YEVmGm1s0WztMW8NSKh9-24" target="YEVmGm1s0WztMW8NSKh9-27">
          <mxGeometry relative="1" as="geometry" />
        </mxCell>
        <mxCell id="YEVmGm1s0WztMW8NSKh9-24" value="RECEPCION DE SOLICITUD DE BODEGA" style="rounded=0;whiteSpace=wrap;html=1;" vertex="1" parent="77e6c97f196da883-3">
          <mxGeometry x="20" y="110" width="120" height="60" as="geometry" />
        </mxCell>
        <mxCell id="YEVmGm1s0WztMW8NSKh9-31" style="edgeStyle=orthogonalEdgeStyle;rounded=0;orthogonalLoop=1;jettySize=auto;html=1;entryX=0.5;entryY=0;entryDx=0;entryDy=0;" edge="1" parent="77e6c97f196da883-3" source="YEVmGm1s0WztMW8NSKh9-27" target="YEVmGm1s0WztMW8NSKh9-28">
          <mxGeometry relative="1" as="geometry" />
        </mxCell>
        <mxCell id="YEVmGm1s0WztMW8NSKh9-27" value="HAY STOCK SUFICIENTE" style="rhombus;whiteSpace=wrap;html=1;" vertex="1" parent="77e6c97f196da883-3">
          <mxGeometry x="40" y="210" width="80" height="80" as="geometry" />
        </mxCell>
        <mxCell id="YEVmGm1s0WztMW8NSKh9-32" style="edgeStyle=orthogonalEdgeStyle;rounded=0;orthogonalLoop=1;jettySize=auto;html=1;exitX=0.5;exitY=1;exitDx=0;exitDy=0;entryX=0.415;entryY=0.019;entryDx=0;entryDy=0;entryPerimeter=0;" edge="1" parent="77e6c97f196da883-3" source="YEVmGm1s0WztMW8NSKh9-28" target="YEVmGm1s0WztMW8NSKh9-29">
          <mxGeometry relative="1" as="geometry">
            <Array as="points">
              <mxPoint x="80" y="410" />
              <mxPoint x="80" y="410" />
            </Array>
          </mxGeometry>
        </mxCell>
        <mxCell id="YEVmGm1s0WztMW8NSKh9-28" value="APTO PARA SALIR?" style="rhombus;whiteSpace=wrap;html=1;" vertex="1" parent="77e6c97f196da883-3">
          <mxGeometry x="40" y="320" width="80" height="80" as="geometry" />
        </mxCell>
        <mxCell id="YEVmGm1s0WztMW8NSKh9-33" style="edgeStyle=orthogonalEdgeStyle;rounded=0;orthogonalLoop=1;jettySize=auto;html=1;entryX=0.5;entryY=0;entryDx=0;entryDy=0;" edge="1" parent="77e6c97f196da883-3" source="YEVmGm1s0WztMW8NSKh9-29" target="YEVmGm1s0WztMW8NSKh9-30">
          <mxGeometry relative="1" as="geometry" />
        </mxCell>
        <mxCell id="YEVmGm1s0WztMW8NSKh9-29" value="ENTREGA DE PRODUCTO" style="rounded=0;whiteSpace=wrap;html=1;" vertex="1" parent="77e6c97f196da883-3">
          <mxGeometry x="30" y="430" width="120" height="60" as="geometry" />
        </mxCell>
        <mxCell id="YEVmGm1s0WztMW8NSKh9-30" value="REGISTRO DE ACTIVIDAD" style="rounded=0;whiteSpace=wrap;html=1;" vertex="1" parent="77e6c97f196da883-3">
          <mxGeometry x="30" y="570" width="120" height="60" as="geometry" />
        </mxCell>
        <mxCell id="YEVmGm1s0WztMW8NSKh9-36" value="SI" style="text;html=1;align=center;verticalAlign=middle;resizable=0;points=[];autosize=1;" vertex="1" parent="77e6c97f196da883-3">
          <mxGeometry x="55" y="400" width="30" height="20" as="geometry" />
        </mxCell>
        <mxCell id="77e6c97f196da883-4" value="" style="swimlane;html=1;startSize=20;" parent="77e6c97f196da883-1" vertex="1">
          <mxGeometry x="320" y="20" width="160" height="1020" as="geometry" />
        </mxCell>
        <mxCell id="YEVmGm1s0WztMW8NSKh9-40" style="edgeStyle=orthogonalEdgeStyle;rounded=0;orthogonalLoop=1;jettySize=auto;html=1;entryX=0.5;entryY=0;entryDx=0;entryDy=0;" edge="1" parent="77e6c97f196da883-4" source="YEVmGm1s0WztMW8NSKh9-37" target="YEVmGm1s0WztMW8NSKh9-38">
          <mxGeometry relative="1" as="geometry" />
        </mxCell>
        <mxCell id="YEVmGm1s0WztMW8NSKh9-37" value="RESTOCK" style="rounded=0;whiteSpace=wrap;html=1;" vertex="1" parent="77e6c97f196da883-4">
          <mxGeometry x="10" y="290" width="120" height="60" as="geometry" />
        </mxCell>
        <mxCell id="YEVmGm1s0WztMW8NSKh9-38" value="REACONDICIONAR" style="rounded=0;whiteSpace=wrap;html=1;" vertex="1" parent="77e6c97f196da883-4">
          <mxGeometry x="10" y="400" width="120" height="60" as="geometry" />
        </mxCell>
        <mxCell id="77e6c97f196da883-5" value="CONTABILIDAD" style="swimlane;html=1;startSize=20;" parent="77e6c97f196da883-1" vertex="1">
          <mxGeometry x="480" y="20" width="160" height="1020" as="geometry" />
        </mxCell>
        <mxCell id="YEVmGm1s0WztMW8NSKh9-53" style="edgeStyle=orthogonalEdgeStyle;rounded=0;orthogonalLoop=1;jettySize=auto;html=1;entryX=0.5;entryY=0;entryDx=0;entryDy=0;" edge="1" parent="77e6c97f196da883-5" source="YEVmGm1s0WztMW8NSKh9-46" target="YEVmGm1s0WztMW8NSKh9-47">
          <mxGeometry relative="1" as="geometry" />
        </mxCell>
        <mxCell id="YEVmGm1s0WztMW8NSKh9-46" value="CREACION DE FACTURA" style="rounded=0;whiteSpace=wrap;html=1;" vertex="1" parent="77e6c97f196da883-5">
          <mxGeometry x="20" y="70" width="120" height="60" as="geometry" />
        </mxCell>
        <mxCell id="YEVmGm1s0WztMW8NSKh9-54" style="edgeStyle=orthogonalEdgeStyle;rounded=0;orthogonalLoop=1;jettySize=auto;html=1;entryX=0.424;entryY=-0.053;entryDx=0;entryDy=0;entryPerimeter=0;" edge="1" parent="77e6c97f196da883-5" source="YEVmGm1s0WztMW8NSKh9-47" target="YEVmGm1s0WztMW8NSKh9-49">
          <mxGeometry relative="1" as="geometry" />
        </mxCell>
        <mxCell id="YEVmGm1s0WztMW8NSKh9-47" value="FACTURA ELECRRONICA" style="rhombus;whiteSpace=wrap;html=1;" vertex="1" parent="77e6c97f196da883-5">
          <mxGeometry x="40" y="160" width="80" height="80" as="geometry" />
        </mxCell>
        <mxCell id="YEVmGm1s0WztMW8NSKh9-55" style="edgeStyle=orthogonalEdgeStyle;rounded=0;orthogonalLoop=1;jettySize=auto;html=1;entryX=0.5;entryY=0;entryDx=0;entryDy=0;" edge="1" parent="77e6c97f196da883-5" source="YEVmGm1s0WztMW8NSKh9-49" target="YEVmGm1s0WztMW8NSKh9-50">
          <mxGeometry relative="1" as="geometry" />
        </mxCell>
        <mxCell id="YEVmGm1s0WztMW8NSKh9-49" value="SOLICITAR DATOS DE FACTURACION" style="shape=parallelogram;perimeter=parallelogramPerimeter;whiteSpace=wrap;html=1;fixedSize=1;" vertex="1" parent="77e6c97f196da883-5">
          <mxGeometry x="30" y="290" width="120" height="60" as="geometry" />
        </mxCell>
        <mxCell id="YEVmGm1s0WztMW8NSKh9-56" style="edgeStyle=orthogonalEdgeStyle;rounded=0;orthogonalLoop=1;jettySize=auto;html=1;entryX=0.5;entryY=0;entryDx=0;entryDy=0;" edge="1" parent="77e6c97f196da883-5" source="YEVmGm1s0WztMW8NSKh9-50" target="YEVmGm1s0WztMW8NSKh9-52">
          <mxGeometry relative="1" as="geometry" />
        </mxCell>
        <mxCell id="YEVmGm1s0WztMW8NSKh9-50" value="ENTREGA DE FACTURA" style="rounded=0;whiteSpace=wrap;html=1;" vertex="1" parent="77e6c97f196da883-5">
          <mxGeometry x="30" y="390" width="120" height="60" as="geometry" />
        </mxCell>
        <mxCell id="YEVmGm1s0WztMW8NSKh9-52" value="REGISTRO DE ACTIVDIAD" style="rounded=0;whiteSpace=wrap;html=1;" vertex="1" parent="77e6c97f196da883-5">
          <mxGeometry x="30" y="490" width="120" height="60" as="geometry" />
        </mxCell>
        <mxCell id="77e6c97f196da883-6" value="Lane 5" style="swimlane;html=1;startSize=20;" parent="77e6c97f196da883-1" vertex="1">
          <mxGeometry x="640" y="20" width="160" height="1020" as="geometry" />
        </mxCell>
        <mxCell id="77e6c97f196da883-7" value="Lane 6" style="swimlane;html=1;startSize=20;" parent="77e6c97f196da883-1" vertex="1">
          <mxGeometry x="800" y="20" width="800" height="1020" as="geometry" />
        </mxCell>
        <mxCell id="YEVmGm1s0WztMW8NSKh9-39" style="edgeStyle=orthogonalEdgeStyle;rounded=0;orthogonalLoop=1;jettySize=auto;html=1;exitX=1;exitY=0.5;exitDx=0;exitDy=0;entryX=0.535;entryY=-0.005;entryDx=0;entryDy=0;entryPerimeter=0;" edge="1" parent="77e6c97f196da883-1" source="YEVmGm1s0WztMW8NSKh9-27" target="YEVmGm1s0WztMW8NSKh9-37">
          <mxGeometry relative="1" as="geometry" />
        </mxCell>
        <mxCell id="YEVmGm1s0WztMW8NSKh9-44" style="edgeStyle=orthogonalEdgeStyle;rounded=0;orthogonalLoop=1;jettySize=auto;html=1;entryX=1.001;entryY=0.671;entryDx=0;entryDy=0;entryPerimeter=0;" edge="1" parent="77e6c97f196da883-1" source="YEVmGm1s0WztMW8NSKh9-38" target="YEVmGm1s0WztMW8NSKh9-30">
          <mxGeometry relative="1" as="geometry">
            <mxPoint x="390" y="630" as="targetPoint" />
            <Array as="points">
              <mxPoint x="390" y="630" />
            </Array>
          </mxGeometry>
        </mxCell>
        <mxCell id="YEVmGm1s0WztMW8NSKh9-58" style="edgeStyle=orthogonalEdgeStyle;rounded=0;orthogonalLoop=1;jettySize=auto;html=1;exitX=1;exitY=0.5;exitDx=0;exitDy=0;entryX=0.5;entryY=0;entryDx=0;entryDy=0;" edge="1" parent="77e6c97f196da883-1" source="YEVmGm1s0WztMW8NSKh9-21" target="YEVmGm1s0WztMW8NSKh9-46">
          <mxGeometry relative="1" as="geometry">
            <Array as="points">
              <mxPoint x="120" y="670" />
              <mxPoint x="340" y="670" />
              <mxPoint x="340" y="70" />
              <mxPoint x="560" y="70" />
            </Array>
          </mxGeometry>
        </mxCell>
        <mxCell id="YEVmGm1s0WztMW8NSKh9-59" style="edgeStyle=orthogonalEdgeStyle;rounded=0;orthogonalLoop=1;jettySize=auto;html=1;entryX=0;entryY=0.5;entryDx=0;entryDy=0;entryPerimeter=0;" edge="1" parent="77e6c97f196da883-1" source="YEVmGm1s0WztMW8NSKh9-30" target="YEVmGm1s0WztMW8NSKh9-8">
          <mxGeometry relative="1" as="geometry" />
        </mxCell>
        <mxCell id="YEVmGm1s0WztMW8NSKh9-60" style="edgeStyle=orthogonalEdgeStyle;rounded=0;orthogonalLoop=1;jettySize=auto;html=1;entryX=1;entryY=0.5;entryDx=0;entryDy=0;" edge="1" parent="77e6c97f196da883-1" source="YEVmGm1s0WztMW8NSKh9-52" target="YEVmGm1s0WztMW8NSKh9-2">
          <mxGeometry relative="1" as="geometry">
            <Array as="points">
              <mxPoint x="360" y="540" />
              <mxPoint x="360" y="775" />
            </Array>
          </mxGeometry>
        </mxCell>
        <mxCell id="YEVmGm1s0WztMW8NSKh9-35" value="SI" style="text;html=1;align=center;verticalAlign=middle;resizable=0;points=[];autosize=1;" vertex="1" parent="1">
          <mxGeometry x="295" y="350" width="30" height="20" as="geometry" />
        </mxCell>
      </root>
    </mxGraphModel>
  </diagram>
</mxfile>
